<svg xmlns="http://www.w3.org/2000/svg" viewBox="0 0 512 512" role="img" aria-label="Receptbok">
  <rect width="512" height="512" rx="112" fill="#047857"/>
  <circle cx="386" cy="118" r="54" fill="#facc15"/>
  <path fill="#f8f5ef" d="M134 120h182c34 0 62 28 62 62v210H134c-31 0-56-25-56-56V176c0-31 25-56 56-56Z"/>
  <path fill="#d97706" d="M134 120h36v272h-36c-31 0-56-25-56-56V176c0-31 25-56 56-56Z"/>
  <path fill="#064e3b" d="M206 190h108c10 0 18 8 18 18s-8 18-18 18H206c-10 0-18-8-18-18s8-18 18-18Zm0 76h124c10 0 18 8 18 18s-8 18-18 18H206c-10 0-18-8-18-18s8-18 18-18Zm0 76h82c10 0 18 8 18 18s-8 18-18 18h-82c-10 0-18-8-18-18s8-18 18-18Z"/>
</svg>
